<svg width="128" height="128" viewBox="0 0 128 128" fill="none" xmlns="http://www.w3.org/2000/svg">
<path d="M49.6298 31.0178L49.2009 31.0125L44.4728 30.9541C42.5593 30.9314 40.6605 31.2916 38.8882 32.0134C37.1159 32.7352 35.5058 33.8041 34.1526 35.1572C32.7995 36.5103 31.7305 38.1203 31.0087 39.8924C30.2868 41.6646 29.9266 43.5633 29.9493 45.4767L29.9493 45.4773L30.0024 50.2056L30.0072 50.6329L29.7016 50.9317L26.3225 54.2363L26.3222 54.2365C24.954 55.5734 23.8669 57.1703 23.1246 58.9333C22.3824 60.6963 22 62.5898 22 64.5027C22 66.4155 22.3824 68.3091 23.1246 70.072C23.8668 71.8349 24.9539 73.4317 26.322 74.7685C26.3221 74.7686 26.3222 74.7687 26.3222 74.7688L29.7064 78.073L30.013 78.3724L30.0077 78.8009L29.9493 83.5287C29.9266 85.4421 30.2868 87.3407 31.0087 89.1129C31.7305 90.885 32.7995 92.495 34.1526 93.8481C35.5058 95.2012 37.1159 96.2701 38.8882 96.9919C40.6605 97.7137 42.5593 98.0739 44.4728 98.0512L44.4734 98.0512L49.202 97.9981L49.6293 97.9933L49.9282 98.2988L53.2329 101.678L53.2332 101.678C54.5701 103.046 56.1671 104.133 57.9302 104.875C59.6933 105.618 61.587 106 63.5 106C65.413 106 67.3067 105.618 69.0698 104.875C70.8328 104.133 72.4297 103.046 73.7666 101.678C73.7667 101.678 73.7668 101.678 73.7668 101.678L77.0713 98.2941L77.3707 97.9875L77.7991 97.9928L82.5272 98.0512C84.4407 98.0739 86.3395 97.7137 88.1118 96.9919C89.8841 96.2701 91.4942 95.2012 92.8474 93.8481C94.2005 92.495 95.2695 90.885 95.9913 89.1129C96.7132 87.3407 97.0734 85.4421 97.0507 83.5287L97.0507 83.528L96.9976 78.7997L96.9928 78.3724L97.2984 78.0736L100.677 74.7691L100.678 74.7688C102.046 73.4319 103.133 71.835 103.875 70.072C104.618 68.3091 105 66.4155 105 64.5027C105 62.5898 104.618 60.6963 103.875 58.9333C103.133 57.1703 102.046 55.5734 100.678 54.2365L97.2936 50.9323L96.987 50.6329L96.9923 50.2044L97.0507 45.4767C97.0734 43.5633 96.7132 41.6646 95.9913 39.8924C95.2695 38.1203 94.2005 36.5103 92.8474 35.1572C91.4942 33.8041 89.8841 32.7352 88.1118 32.0134C86.3395 31.2916 84.4407 30.9314 82.5272 30.9541L82.5266 30.9541L77.798 31.0072L77.3707 31.012L77.0718 30.7065L73.7671 27.3276L73.5316 27.0868C72.2441 25.8289 70.7306 24.8237 69.0698 24.1246C67.3067 23.3823 65.413 23 63.5 23C61.587 23 59.6933 23.3823 57.9302 24.1246C56.1674 24.8666 54.5708 25.9534 53.234 27.3212L49.6298 31.0178ZM49.6298 31.0178L49.9293 30.7107L53.2332 27.322L49.6298 31.0178Z" fill="#E7BF33" stroke="#A48723" stroke-width="2"/>
<path d="M70.5363 45.6364V82H62.8481V52.9339H62.635L54.3076 58.1541V51.3359L63.3097 45.6364H70.5363Z" fill="white"/>
<path d="M70.5363 45.6364H71.5363V44.6364H70.5363V45.6364ZM70.5363 82V83H71.5363V82H70.5363ZM62.8481 82H61.8481V83H62.8481V82ZM62.8481 52.9339H63.8481V51.9339H62.8481V52.9339ZM62.635 52.9339V51.9339H62.3475L62.1039 52.0867L62.635 52.9339ZM54.3076 58.1541H53.3076V59.9612L54.8388 59.0014L54.3076 58.1541ZM54.3076 51.3359L53.7727 50.491L53.3076 50.7855V51.3359H54.3076ZM63.3097 45.6364V44.6364H63.0198L62.7748 44.7915L63.3097 45.6364ZM69.5363 45.6364V82H71.5363V45.6364H69.5363ZM70.5363 81H62.8481V83H70.5363V81ZM63.8481 82V52.9339H61.8481V82H63.8481ZM62.8481 51.9339H62.635V53.9339H62.8481V51.9339ZM62.1039 52.0867L53.7765 57.3068L54.8388 59.0014L63.1662 53.7812L62.1039 52.0867ZM55.3076 58.1541V51.3359H53.3076V58.1541H55.3076ZM54.8426 52.1808L63.8447 46.4813L62.7748 44.7915L53.7727 50.491L54.8426 52.1808ZM63.3097 46.6364H70.5363V44.6364H63.3097V46.6364Z" fill="#A48723"/>
</svg>
