<svg width="128" height="128" viewBox="0 0 128 128" fill="none"
    xmlns="http://www.w3.org/2000/svg">
    <rect width="128" height="128" fill="white"/>
    <path d="M31 34C31 29.5817 34.5817 26 39 26H68C70.2091 26 72 27.7909 72 30V103H31V34Z" fill="#3D5A6C"/>
    <path d="M75 67C75 65.3431 76.3431 64 78 64H88C92.4183 64 96 67.5817 96 72V103H75V67Z" fill="#72A98F"/>
    <path d="M53.4205 40.6364C53.4205 41.5568 53.2543 42.3523 52.9219 43.0227C52.5895 43.6932 52.1335 44.2102 51.554 44.5739C50.9744 44.9375 50.3125 45.1193 49.5682 45.1193C48.8239 45.1193 48.1619 44.9375 47.5824 44.5739C47.0028 44.2102 46.5469 43.6932 46.2145 43.0227C45.8821 42.3523 45.7159 41.5568 45.7159 40.6364C45.7159 39.7159 45.8821 38.9205 46.2145 38.25C46.5469 37.5795 47.0028 37.0625 47.5824 36.6989C48.1619 36.3352 48.8239 36.1534 49.5682 36.1534C50.3125 36.1534 50.9744 36.3352 51.554 36.6989C52.1335 37.0625 52.5895 37.5795 52.9219 38.25C53.2543 38.9205 53.4205 39.7159 53.4205 40.6364ZM52.3977 40.6364C52.3977 39.8807 52.2713 39.2429 52.0185 38.723C51.7685 38.2031 51.429 37.8097 51 37.5426C50.5739 37.2756 50.0966 37.142 49.5682 37.142C49.0398 37.142 48.5611 37.2756 48.1321 37.5426C47.706 37.8097 47.3665 38.2031 47.1136 38.723C46.8636 39.2429 46.7386 39.8807 46.7386 40.6364C46.7386 41.392 46.8636 42.0298 47.1136 42.5497C47.3665 43.0696 47.706 43.4631 48.1321 43.7301C48.5611 43.9972 49.0398 44.1307 49.5682 44.1307C50.0966 44.1307 50.5739 43.9972 51 43.7301C51.429 43.4631 51.7685 43.0696 52.0185 42.5497C52.2713 42.0298 52.3977 41.392 52.3977 40.6364ZM64.4702 45.1364C63.8793 45.1364 63.3608 44.9957 62.9148 44.7145C62.4716 44.4332 62.125 44.0398 61.875 43.5341C61.6278 43.0284 61.5043 42.4375 61.5043 41.7614C61.5043 41.0795 61.6278 40.4844 61.875 39.9759C62.125 39.4673 62.4716 39.0724 62.9148 38.7912C63.3608 38.5099 63.8793 38.3693 64.4702 38.3693C65.0611 38.3693 65.5781 38.5099 66.0213 38.7912C66.4673 39.0724 66.8139 39.4673 67.0611 39.9759C67.3111 40.4844 67.4361 41.0795 67.4361 41.7614C67.4361 42.4375 67.3111 43.0284 67.0611 43.5341C66.8139 44.0398 66.4673 44.4332 66.0213 44.7145C65.5781 44.9957 65.0611 45.1364 64.4702 45.1364ZM64.4702 44.233C64.919 44.233 65.2884 44.1179 65.5781 43.8878C65.8679 43.6577 66.0824 43.3551 66.2216 42.9801C66.3608 42.6051 66.4304 42.1989 66.4304 41.7614C66.4304 41.3239 66.3608 40.9162 66.2216 40.5384C66.0824 40.1605 65.8679 39.8551 65.5781 39.6222C65.2884 39.3892 64.919 39.2727 64.4702 39.2727C64.0213 39.2727 63.652 39.3892 63.3622 39.6222C63.0724 39.8551 62.858 40.1605 62.7188 40.5384C62.5795 40.9162 62.5099 41.3239 62.5099 41.7614C62.5099 42.1989 62.5795 42.6051 62.7188 42.9801C62.858 43.3551 63.0724 43.6577 63.3622 43.8878C63.652 44.1179 64.0213 44.233 64.4702 44.233Z" fill="white"/>
    <path d="M57.4375 50V50.9375H51.983V50H57.4375ZM62.8633 50V50.9375H57.4087V50H62.8633Z" fill="white"/>
    <path d="M81.4659 72.4091L77.8068 74.2727V73.5455L80.6136 72.1932L80.5909 72.2386V72.125L80.6136 72.1705L77.8068 70.8182V70.0909L81.4659 71.9545V72.4091ZM89.2734 75.0795C88.8454 75.0795 88.4808 74.9631 88.1797 74.7301C87.8786 74.4953 87.6484 74.1553 87.4893 73.7102C87.3303 73.2633 87.2507 72.7235 87.2507 72.0909C87.2507 71.4621 87.3303 70.9252 87.4893 70.4801C87.6503 70.0331 87.8814 69.6922 88.1825 69.4574C88.4856 69.2206 88.8492 69.1023 89.2734 69.1023C89.6977 69.1023 90.0604 69.2206 90.3615 69.4574C90.6645 69.6922 90.8956 70.0331 91.0547 70.4801C91.2157 70.9252 91.2962 71.4621 91.2962 72.0909C91.2962 72.7235 91.2166 73.2633 91.0575 73.7102C90.8984 74.1553 90.6683 74.4953 90.3672 74.7301C90.0661 74.9631 89.7015 75.0795 89.2734 75.0795ZM89.2734 74.4545C89.6977 74.4545 90.0272 74.25 90.2621 73.8409C90.4969 73.4318 90.6143 72.8485 90.6143 72.0909C90.6143 71.5871 90.5604 71.1581 90.4524 70.804C90.3464 70.4498 90.1929 70.1799 89.9922 69.9943C89.7933 69.8087 89.5537 69.7159 89.2734 69.7159C88.853 69.7159 88.5244 69.9233 88.2876 70.3381C88.0509 70.7509 87.9325 71.3352 87.9325 72.0909C87.9325 72.5947 87.9856 73.0227 88.0916 73.375C88.1977 73.7273 88.3501 73.9953 88.549 74.179C88.7498 74.3627 88.9912 74.4545 89.2734 74.4545Z" fill="white"/>
    <path d="M81.0143 76.872L86.8312 76.7501L86.8724 78.7156C86.882 79.1719 86.8074 79.5467 86.6487 79.8398C86.492 80.1348 86.2759 80.3553 86.0005 80.5013C85.7251 80.6472 85.416 80.7238 85.0733 80.731C84.7306 80.7382 84.4176 80.6746 84.1345 80.5404C83.8513 80.408 83.6234 80.1987 83.4507 79.9125C83.2799 79.6263 83.1898 79.2568 83.1803 78.8043L83.1508 77.3955L83.7756 77.3824L83.8047 78.7685C83.8112 79.0809 83.8704 79.3307 83.9823 79.5178C84.0942 79.7049 84.2429 79.8391 84.4284 79.9204C84.6157 80.0037 84.8259 80.0428 85.0588 80.0379C85.2917 80.0331 85.4991 79.9851 85.6809 79.8942C85.8628 79.8051 86.0038 79.6639 86.104 79.4705C86.206 79.277 86.2537 79.0222 86.2471 78.7059L86.2211 77.4676L81.0291 77.5764L81.0143 76.872Z" fill="white"/>
</svg>
