<svg width="128" height="128" viewBox="0 0 128 128" fill="none" xmlns="http://www.w3.org/2000/svg">
<path d="M49.6298 31.0178L49.2009 31.0125L44.4728 30.9541C42.5593 30.9314 40.6605 31.2916 38.8882 32.0134C37.1159 32.7352 35.5058 33.8041 34.1526 35.1572C32.7995 36.5103 31.7305 38.1203 31.0087 39.8924C30.2868 41.6646 29.9266 43.5633 29.9493 45.4767L29.9493 45.4773L30.0024 50.2056L30.0072 50.6329L29.7016 50.9317L26.3225 54.2363L26.3222 54.2365C24.954 55.5734 23.8669 57.1703 23.1246 58.9333C22.3824 60.6963 22 62.5898 22 64.5027C22 66.4155 22.3824 68.3091 23.1246 70.072C23.8668 71.8349 24.9539 73.4317 26.322 74.7685C26.3221 74.7686 26.3222 74.7687 26.3222 74.7688L29.7064 78.073L30.013 78.3724L30.0077 78.8009L29.9493 83.5287C29.9266 85.4421 30.2868 87.3407 31.0087 89.1129C31.7305 90.885 32.7995 92.495 34.1526 93.8481C35.5058 95.2012 37.1159 96.2701 38.8882 96.9919C40.6605 97.7137 42.5593 98.0739 44.4728 98.0512L44.4734 98.0512L49.202 97.9981L49.6293 97.9933L49.9282 98.2988L53.2329 101.678L53.2332 101.678C54.5701 103.046 56.1671 104.133 57.9302 104.875C59.6933 105.618 61.587 106 63.5 106C65.413 106 67.3067 105.618 69.0698 104.875C70.8328 104.133 72.4297 103.046 73.7666 101.678C73.7667 101.678 73.7668 101.678 73.7668 101.678L77.0713 98.2941L77.3707 97.9875L77.7991 97.9928L82.5272 98.0512C84.4407 98.0739 86.3395 97.7137 88.1118 96.9919C89.8841 96.2701 91.4942 95.2012 92.8474 93.8481C94.2005 92.495 95.2695 90.885 95.9913 89.1129C96.7132 87.3407 97.0734 85.4421 97.0507 83.5287L97.0507 83.528L96.9976 78.7997L96.9928 78.3724L97.2984 78.0736L100.677 74.7691L100.678 74.7688C102.046 73.4319 103.133 71.835 103.875 70.072C104.618 68.3091 105 66.4155 105 64.5027C105 62.5898 104.618 60.6963 103.875 58.9333C103.133 57.1703 102.046 55.5734 100.678 54.2365L97.2936 50.9323L96.987 50.6329L96.9923 50.2044L97.0507 45.4767C97.0734 43.5633 96.7132 41.6646 95.9913 39.8924C95.2695 38.1203 94.2005 36.5103 92.8474 35.1572C91.4942 33.8041 89.8841 32.7352 88.1118 32.0134C86.3395 31.2916 84.4407 30.9314 82.5272 30.9541L82.5266 30.9541L77.798 31.0072L77.3707 31.012L77.0718 30.7065L73.7671 27.3276L73.5316 27.0868C72.2441 25.8289 70.7306 24.8237 69.0698 24.1246C67.3067 23.3823 65.413 23 63.5 23C61.587 23 59.6933 23.3823 57.9302 24.1246C56.1674 24.8666 54.5708 25.9534 53.234 27.3212L49.6298 31.0178ZM49.6298 31.0178L49.9293 30.7107L53.2332 27.322L49.6298 31.0178Z" fill="#D3D3D3" stroke="#8B8B8B" stroke-width="2"/>
<path d="M51.2004 82V76.4602L64.1443 64.4751C65.2451 63.4098 66.1684 62.451 66.9142 61.5987C67.6717 60.7464 68.2458 59.9119 68.6365 59.0952C69.0271 58.2666 69.2224 57.3729 69.2224 56.4141C69.2224 55.3487 68.9797 54.4313 68.4944 53.6619C68.0091 52.8807 67.3462 52.2829 66.5058 51.8686C65.6653 51.4425 64.7124 51.2294 63.6471 51.2294C62.5344 51.2294 61.5638 51.4543 60.7352 51.9041C59.9066 52.3539 59.2674 52.9991 58.8176 53.8395C58.3677 54.6799 58.1428 55.6802 58.1428 56.8402H50.8453C50.8453 54.4609 51.3838 52.3954 52.461 50.6435C53.5382 48.8916 55.0474 47.5362 56.9887 46.5774C58.93 45.6186 61.1672 45.1392 63.7004 45.1392C66.3045 45.1392 68.5713 45.6009 70.5008 46.5241C72.4421 47.4356 73.9513 48.7022 75.0285 50.3239C76.1057 51.9455 76.6443 53.804 76.6443 55.8991C76.6443 57.2723 76.372 58.6276 75.8275 59.9652C75.2948 61.3028 74.3419 62.7884 72.9688 64.4219C71.5957 66.0436 69.6604 67.9908 67.1627 70.2635L61.8538 75.4659V75.7145H77.1237V82H51.2004Z" fill="white"/>
<path d="M51.2004 82H50.2004V83H51.2004V82ZM51.2004 76.4602L50.521 75.7265L50.2004 76.0233V76.4602H51.2004ZM64.1443 64.4751L64.8237 65.2089L64.8318 65.2014L64.8397 65.1937L64.1443 64.4751ZM66.9142 61.5987L66.1667 60.9343L66.1616 60.9402L66.9142 61.5987ZM68.6365 59.0952L69.5386 59.5266L69.541 59.5216L68.6365 59.0952ZM68.4944 53.6619L67.6449 54.1896L67.6486 54.1954L68.4944 53.6619ZM66.5058 51.8686L66.0535 52.7606L66.0636 52.7655L66.5058 51.8686ZM58.8176 53.8395L59.6992 54.3114L59.6992 54.3114L58.8176 53.8395ZM58.1428 56.8402V57.8402H59.1428V56.8402H58.1428ZM50.8453 56.8402H49.8453V57.8402H50.8453V56.8402ZM52.461 50.6435L53.3129 51.1672L53.3129 51.1672L52.461 50.6435ZM56.9887 46.5774L56.5459 45.6808L56.5459 45.6808L56.9887 46.5774ZM70.5008 46.5241L70.0691 47.4262L70.0758 47.4293L70.5008 46.5241ZM75.0285 50.3239L74.1955 50.8772L74.1955 50.8772L75.0285 50.3239ZM75.8275 59.9652L74.9013 59.5882L74.8985 59.5952L75.8275 59.9652ZM72.9688 64.4219L73.732 65.0681L73.7343 65.0653L72.9688 64.4219ZM67.1627 70.2635L66.4897 69.5239L66.476 69.5363L66.4628 69.5493L67.1627 70.2635ZM61.8538 75.4659L61.1539 74.7517L60.8538 75.0457V75.4659H61.8538ZM61.8538 75.7145H60.8538V76.7145H61.8538V75.7145ZM77.1237 75.7145H78.1237V74.7145H77.1237V75.7145ZM77.1237 82V83H78.1237V82H77.1237ZM52.2004 82V76.4602H50.2004V82H52.2004ZM51.8798 77.194L64.8237 65.2089L63.4649 63.7414L50.521 75.7265L51.8798 77.194ZM64.8397 65.1937C65.954 64.1154 66.8977 63.1361 67.6667 62.2572L66.1616 60.9402C65.4391 61.7659 64.5362 62.7042 63.4488 63.7565L64.8397 65.1937ZM67.6616 62.2631C68.466 61.3581 69.0987 60.4465 69.5386 59.5266L67.7343 58.6637C67.393 59.3774 66.8774 60.1348 66.1667 60.9344L67.6616 62.2631ZM69.541 59.5216C69.9974 58.5534 70.2224 57.5133 70.2224 56.4141H68.2224C68.2224 57.2325 68.0567 57.9798 67.7319 58.6688L69.541 59.5216ZM70.2224 56.4141C70.2224 55.1927 69.9425 54.0832 69.3402 53.1284L67.6486 54.1954C68.017 54.7795 68.2224 55.5047 68.2224 56.4141H70.2224ZM69.3438 53.1342C68.758 52.1912 67.9526 51.4669 66.9479 50.9717L66.0636 52.7655C66.7398 53.0989 67.2602 53.5702 67.645 54.1896L69.3438 53.1342ZM66.958 50.9767C65.96 50.4707 64.8489 50.2294 63.6471 50.2294V52.2294C64.576 52.2294 65.3706 52.4142 66.0535 52.7605L66.958 50.9767ZM63.6471 50.2294C62.3978 50.2294 61.2575 50.4828 60.2581 51.0253L61.2123 52.783C61.8701 52.4259 62.671 52.2294 63.6471 52.2294V50.2294ZM60.2581 51.0253C59.2558 51.5694 58.4768 52.3569 57.9359 53.3676L59.6992 54.3114C60.0579 53.6412 60.5574 53.1385 61.2123 52.783L60.2581 51.0253ZM57.9359 53.3676C57.3933 54.3815 57.1428 55.5509 57.1428 56.8402H59.1428C59.1428 55.8094 59.3422 54.9784 59.6992 54.3114L57.9359 53.3676ZM58.1428 55.8402H50.8453V57.8402H58.1428V55.8402ZM51.8453 56.8402C51.8453 54.6163 52.347 52.7382 53.3129 51.1672L51.6092 50.1197C50.4207 52.0525 49.8453 54.3055 49.8453 56.8402H51.8453ZM53.3129 51.1672C54.2862 49.5843 55.6496 48.3541 57.4316 47.474L56.5459 45.6808C54.4452 46.7183 52.7902 48.1989 51.6092 50.1197L53.3129 51.1672ZM57.4316 47.474C59.2136 46.5939 61.2948 46.1392 63.7004 46.1392V44.1392C61.0397 44.1392 58.6465 44.6433 56.5459 45.6808L57.4316 47.474ZM63.7004 46.1392C66.1871 46.1392 68.3006 46.5799 70.0691 47.4262L70.9325 45.6221C68.8421 44.6218 66.422 44.1392 63.7004 44.1392V46.1392ZM70.0758 47.4293C71.8688 48.2712 73.2297 49.4231 74.1955 50.8772L75.8615 49.7706C74.673 47.9812 73.0154 46.6 70.9258 45.619L70.0758 47.4293ZM74.1955 50.8772C75.1554 52.3223 75.6443 53.9851 75.6443 55.8991H77.6443C77.6443 53.6228 77.056 51.5688 75.8615 49.7706L74.1955 50.8772ZM75.6443 55.8991C75.6443 57.1364 75.3996 58.364 74.9013 59.5882L76.7537 60.3422C77.3444 58.8912 77.6443 57.4081 77.6443 55.8991H75.6443ZM74.8985 59.5952C74.4195 60.798 73.5375 62.1912 72.2034 63.7784L73.7343 65.0653C75.1463 63.3855 76.1702 61.8076 76.7565 60.3352L74.8985 59.5952ZM72.2057 63.7757C70.8719 65.3509 68.9716 67.2655 66.4897 69.5239L67.8358 71.0031C70.3491 68.7161 72.3196 66.7362 73.732 65.0681L72.2057 63.7757ZM66.4628 69.5493L61.1539 74.7517L62.5537 76.1801L67.8626 70.9777L66.4628 69.5493ZM60.8538 75.4659V75.7145H62.8538V75.4659H60.8538ZM61.8538 76.7145H77.1237V74.7145H61.8538V76.7145ZM76.1237 75.7145V82H78.1237V75.7145H76.1237ZM77.1237 81H51.2004V83H77.1237V81Z" fill="#8B8B8B"/>
</svg>
