<svg width="128" height="128" viewBox="0 0 128 128" fill="none" xmlns="http://www.w3.org/2000/svg">
<path d="M49.6298 31.0178L49.2009 31.0125L44.4728 30.9541C42.5593 30.9314 40.6605 31.2916 38.8882 32.0134C37.1159 32.7352 35.5058 33.8041 34.1526 35.1572C32.7995 36.5103 31.7305 38.1203 31.0087 39.8924C30.2868 41.6646 29.9266 43.5633 29.9493 45.4767L29.9493 45.4773L30.0024 50.2056L30.0072 50.6329L29.7016 50.9317L26.3225 54.2363L26.3222 54.2365C24.954 55.5734 23.8669 57.1703 23.1246 58.9333C22.3824 60.6963 22 62.5898 22 64.5027C22 66.4155 22.3824 68.3091 23.1246 70.072C23.8668 71.8349 24.9539 73.4317 26.322 74.7685C26.3221 74.7686 26.3222 74.7687 26.3222 74.7688L29.7064 78.073L30.013 78.3724L30.0077 78.8009L29.9493 83.5287C29.9266 85.4421 30.2868 87.3407 31.0087 89.1129C31.7305 90.885 32.7995 92.495 34.1526 93.8481C35.5058 95.2012 37.1159 96.2701 38.8882 96.9919C40.6605 97.7137 42.5593 98.0739 44.4728 98.0512L44.4734 98.0512L49.202 97.9981L49.6293 97.9933L49.9282 98.2988L53.2329 101.678L53.2332 101.678C54.5701 103.046 56.1671 104.133 57.9302 104.875C59.6933 105.618 61.587 106 63.5 106C65.413 106 67.3067 105.618 69.0698 104.875C70.8328 104.133 72.4297 103.046 73.7666 101.678C73.7667 101.678 73.7668 101.678 73.7668 101.678L77.0713 98.2941L77.3707 97.9875L77.7991 97.9928L82.5272 98.0512C84.4407 98.0739 86.3395 97.7137 88.1118 96.9919C89.8841 96.2701 91.4942 95.2012 92.8474 93.8481C94.2005 92.495 95.2695 90.885 95.9913 89.1129C96.7132 87.3407 97.0734 85.4421 97.0507 83.5287L97.0507 83.528L96.9976 78.7997L96.9928 78.3724L97.2984 78.0736L100.677 74.7691L100.678 74.7688C102.046 73.4319 103.133 71.835 103.875 70.072C104.618 68.3091 105 66.4155 105 64.5027C105 62.5898 104.618 60.6963 103.875 58.9333C103.133 57.1703 102.046 55.5734 100.678 54.2365L97.2936 50.9323L96.987 50.6329L96.9923 50.2044L97.0507 45.4767C97.0734 43.5633 96.7132 41.6646 95.9913 39.8924C95.2695 38.1203 94.2005 36.5103 92.8474 35.1572C91.4942 33.8041 89.8841 32.7352 88.1118 32.0134C86.3395 31.2916 84.4407 30.9314 82.5272 30.9541L82.5266 30.9541L77.798 31.0072L77.3707 31.012L77.0718 30.7065L73.7671 27.3276L73.5316 27.0868C72.2441 25.8289 70.7306 24.8237 69.0698 24.1246C67.3067 23.3823 65.413 23 63.5 23C61.587 23 59.6933 23.3823 57.9302 24.1246C56.1674 24.8666 54.5708 25.9534 53.234 27.3212L49.6298 31.0178ZM49.6298 31.0178L49.9293 30.7107L53.2332 27.322L49.6298 31.0178Z" fill="#F4805B" stroke="#CB5D1F" stroke-width="2"/>
<path d="M63.909 82.4972C61.2575 82.4972 58.896 82.0414 56.8245 81.13C54.7648 80.2067 53.1372 78.9401 51.9417 77.3303C50.758 75.7086 50.1483 73.8383 50.1128 71.7195H57.8543C57.9017 72.6072 58.1917 73.3885 58.7243 74.0632C59.2689 74.7261 59.9909 75.241 60.8905 75.608C61.7902 75.9749 62.8022 76.1584 63.9268 76.1584C65.0986 76.1584 66.1344 75.9512 67.034 75.5369C67.9336 75.1226 68.6379 74.5485 69.1469 73.8146C69.6559 73.0807 69.9104 72.2344 69.9104 71.2756C69.9104 70.3049 69.6382 69.4467 69.0937 68.701C68.561 67.9434 67.7916 67.3516 66.7854 66.9254C65.7911 66.4993 64.6074 66.2862 63.2343 66.2862H59.843V60.6399H63.2343C64.3943 60.6399 65.4182 60.4387 66.306 60.0362C67.2056 59.6338 67.904 59.0774 68.4012 58.3672C68.8983 57.6451 69.1469 56.8047 69.1469 55.8459C69.1469 54.9344 68.9279 54.1354 68.49 53.4489C68.0638 52.7505 67.4601 52.206 66.6789 51.8153C65.9095 51.4247 65.0099 51.2294 63.98 51.2294C62.9384 51.2294 61.9855 51.4188 61.1214 51.7976C60.2573 52.1645 59.5648 52.6913 59.0439 53.3778C58.5231 54.0644 58.2449 54.8693 58.2094 55.7926H50.8408C50.8763 53.6974 51.4741 51.8509 52.6341 50.2528C53.7942 48.6548 55.3567 47.406 57.3216 46.5064C59.2984 45.5949 61.5297 45.1392 64.0155 45.1392C66.525 45.1392 68.7208 45.5949 70.6029 46.5064C72.485 47.4178 73.9469 48.6489 74.9885 50.1996C76.0421 51.7384 76.5629 53.4666 76.551 55.3842C76.5629 57.4202 75.9296 59.1188 74.6512 60.4801C73.3846 61.8414 71.7333 62.7055 69.6974 63.0724V63.3565C72.3725 63.6998 74.4085 64.629 75.8053 66.1442C77.2139 67.6475 77.9123 69.5296 77.9005 71.7905C77.9123 73.862 77.3145 75.7027 76.1072 77.3125C74.9116 78.9223 73.2603 80.1889 71.1533 81.1122C69.0463 82.0355 66.6315 82.4972 63.909 82.4972Z" fill="white"/>
<path d="M56.8245 81.13L56.4154 82.0425L56.4217 82.0453L56.8245 81.13ZM51.9417 77.3303L51.1339 77.9198L51.1388 77.9265L51.9417 77.3303ZM50.1128 71.7195V70.7195H49.0959L49.113 71.7362L50.1128 71.7195ZM57.8543 71.7195L58.8529 71.6662L58.8024 70.7195H57.8543V71.7195ZM58.7243 74.0632L57.9395 74.6829L57.9455 74.6905L57.9516 74.6979L58.7243 74.0632ZM60.8905 75.608L60.5129 76.5339L60.5129 76.5339L60.8905 75.608ZM67.034 75.5369L66.6157 74.6286L66.6157 74.6286L67.034 75.5369ZM69.1469 73.8146L69.9686 74.3845L69.9686 74.3845L69.1469 73.8146ZM69.0937 68.701L68.2756 69.2762L68.2808 69.2835L68.286 69.2907L69.0937 68.701ZM66.7854 66.9254L66.3915 67.8446L66.3954 67.8462L66.7854 66.9254ZM59.843 66.2862H58.843V67.2862H59.843V66.2862ZM59.843 60.6399V59.6399H58.843V60.6399H59.843ZM66.306 60.0362L65.8976 59.1234L65.8931 59.1254L66.306 60.0362ZM68.4012 58.3672L69.2204 58.9407L69.2248 58.9343L68.4012 58.3672ZM68.49 53.4489L67.6363 53.9697L67.6415 53.9783L67.6469 53.9867L68.49 53.4489ZM66.6789 51.8153L66.2262 52.707L66.2317 52.7098L66.6789 51.8153ZM61.1214 51.7976L61.5123 52.7181L61.5228 52.7135L61.1214 51.7976ZM59.0439 53.3778L59.8406 53.9822L59.8406 53.9822L59.0439 53.3778ZM58.2094 55.7926V56.7926H59.1717L59.2087 55.831L58.2094 55.7926ZM50.8408 55.7926L49.841 55.7757L49.8237 56.7926H50.8408V55.7926ZM52.6341 50.2528L53.4434 50.8403L53.4434 50.8403L52.6341 50.2528ZM57.3216 46.5064L57.7379 47.4156L57.7404 47.4145L57.3216 46.5064ZM70.6029 46.5064L71.0388 45.6064L71.0388 45.6064L70.6029 46.5064ZM74.9885 50.1996L74.1584 50.7572L74.1634 50.7645L74.9885 50.1996ZM76.551 55.3842L75.551 55.3781L75.5511 55.39L76.551 55.3842ZM74.6512 60.4801L73.9222 59.7955L73.9191 59.7989L74.6512 60.4801ZM69.6974 63.0724L69.52 62.0883L68.6974 62.2366V63.0724H69.6974ZM69.6974 63.3565H68.6974V64.2364L69.5701 64.3484L69.6974 63.3565ZM75.8053 66.1442L75.07 66.822L75.0756 66.8279L75.8053 66.1442ZM77.9005 71.7905L76.9004 71.7852L76.9005 71.7962L77.9005 71.7905ZM76.1072 77.3125L75.3071 76.7125L75.3043 76.7163L76.1072 77.3125ZM71.1533 81.1122L70.752 80.1963L70.752 80.1963L71.1533 81.1122ZM63.909 81.4972C61.3726 81.4972 59.1519 81.0615 57.2272 80.2147L56.4217 82.0453C58.6401 83.0213 61.1424 83.4972 63.909 83.4972V81.4972ZM57.2335 80.2175C55.3101 79.3552 53.8257 78.1899 52.7445 76.734L51.1388 77.9265C52.4487 79.6903 54.2196 81.0581 56.4154 82.0425L57.2335 80.2175ZM52.7494 76.7407C51.6942 75.2951 51.145 73.6275 51.1127 71.7027L49.113 71.7362C49.1517 74.0491 49.8217 76.122 51.134 77.9198L52.7494 76.7407ZM50.1128 72.7195H57.8543V70.7195H50.1128V72.7195ZM56.8557 71.7727C56.9137 72.8593 57.2742 73.8401 57.9395 74.6829L59.5092 73.4436C59.1092 72.9368 58.8896 72.3552 58.8529 71.6662L56.8557 71.7727ZM57.9516 74.6979C58.6149 75.5054 59.4801 76.1126 60.5129 76.5339L61.2682 74.682C60.5018 74.3694 59.9228 73.9468 59.4971 73.4285L57.9516 74.6979ZM60.5129 76.5339C61.5497 76.9568 62.6929 77.1584 63.9268 77.1584V75.1584C62.9116 75.1584 62.0306 74.993 61.2682 74.682L60.5129 76.5339ZM63.9268 77.1584C65.2169 77.1584 66.3997 76.93 67.4523 76.4452L66.6157 74.6286C65.8691 74.9725 64.9804 75.1584 63.9268 75.1584V77.1584ZM67.4523 76.4452C68.4961 75.9646 69.347 75.2808 69.9686 74.3845L68.3252 73.2447C67.9289 73.8162 67.3712 74.2807 66.6157 74.6286L67.4523 76.4452ZM69.9686 74.3845C70.6024 73.4707 70.9104 72.4223 70.9104 71.2756H68.9104C68.9104 72.0465 68.7095 72.6907 68.3252 73.2447L69.9686 74.3845ZM70.9104 71.2756C70.9104 70.1045 70.5775 69.0374 69.9013 68.1113L68.286 69.2907C68.6989 69.8561 68.9104 70.5053 68.9104 71.2756H70.9104ZM69.9117 68.1258C69.2534 67.1896 68.3224 66.4904 67.1754 66.0046L66.3954 67.8462C67.2608 68.2127 67.8686 68.6972 68.2756 69.2762L69.9117 68.1258ZM67.1793 66.0063C66.0319 65.5145 64.7077 65.2862 63.2343 65.2862V67.2862C64.5071 67.2862 65.5503 67.4841 66.3915 67.8446L67.1793 66.0063ZM63.2343 65.2862H59.843V67.2862H63.2343V65.2862ZM60.843 66.2862V60.6399H58.843V66.2862H60.843ZM59.843 61.6399H63.2343V59.6399H59.843V61.6399ZM63.2343 61.6399C64.51 61.6399 65.6791 61.4184 66.7189 60.947L65.8931 59.1254C65.1573 59.459 64.2786 59.6399 63.2343 59.6399V61.6399ZM66.7144 60.949C67.7561 60.483 68.6059 59.8185 69.2204 58.9407L67.582 57.7937C67.2021 58.3363 66.6552 58.7845 65.8977 59.1234L66.7144 60.949ZM69.2248 58.9343C69.8476 58.0298 70.1469 56.9874 70.1469 55.8459H68.1469C68.1469 56.622 67.9491 57.2605 67.5775 57.8001L69.2248 58.9343ZM70.1469 55.8459C70.1469 54.7673 69.8854 53.7769 69.333 52.911L67.6469 53.9867C67.9705 54.4939 68.1469 55.1015 68.1469 55.8459H70.1469ZM69.3436 52.928C68.8131 52.0585 68.0633 51.3895 67.1261 50.9209L66.2317 52.7098C66.8569 53.0224 67.3146 53.4425 67.6363 53.9697L69.3436 52.928ZM67.1316 50.9237C66.1972 50.4493 65.137 50.2294 63.98 50.2294V52.2294C64.8827 52.2294 65.6217 52.4001 66.2262 52.707L67.1316 50.9237ZM63.98 50.2294C62.8146 50.2294 61.7232 50.4419 60.7199 50.8817L61.5228 52.7135C62.2478 52.3957 63.0621 52.2294 63.98 52.2294V50.2294ZM60.7305 50.8771C59.7206 51.306 58.8828 51.9357 58.2473 52.7735L59.8406 53.9822C60.2468 53.4469 60.7939 53.0231 61.5122 52.718L60.7305 50.8771ZM58.2473 52.7735C57.5933 53.6354 57.253 54.6415 57.2102 55.7542L59.2087 55.831C59.2369 55.0971 59.4529 54.4934 59.8406 53.9822L58.2473 52.7735ZM58.2094 54.7926H50.8408V56.7926H58.2094V54.7926ZM51.8407 55.8096C51.8729 53.9063 52.4115 52.2618 53.4434 50.8403L51.8249 49.6654C50.5367 51.4399 49.8797 53.4885 49.841 55.7757L51.8407 55.8096ZM53.4434 50.8403C54.493 49.3945 55.9143 48.2505 57.7379 47.4156L56.9054 45.5972C54.7991 46.5615 53.0954 47.9152 51.8249 49.6654L53.4434 50.8403ZM57.7404 47.4145C59.5684 46.5716 61.6538 46.1392 64.0155 46.1392V44.1392C61.4057 44.1392 59.0284 44.6182 56.9029 45.5983L57.7404 47.4145ZM64.0155 46.1392C66.4039 46.1392 68.4453 46.5726 70.167 47.4064L71.0388 45.6064C68.9963 44.6172 66.6462 44.1392 64.0155 44.1392V46.1392ZM70.167 47.4064C71.9092 48.2501 73.227 49.3705 74.1585 50.7572L75.8186 49.642C74.6668 47.9273 73.0608 46.5856 71.0388 45.6064L70.167 47.4064ZM74.1634 50.7645C75.0984 52.1302 75.5617 53.658 75.5511 55.3781L77.551 55.3904C77.5641 53.2752 76.9857 51.3466 75.8137 49.6347L74.1634 50.7645ZM75.5511 55.39C75.5616 57.195 75.0086 58.6388 73.9222 59.7955L75.3801 61.1647C76.8506 59.5989 77.5642 57.6455 77.551 55.3784L75.5511 55.39ZM73.9191 59.7989C72.8163 60.9841 71.3684 61.7552 69.52 62.0883L69.8747 64.0566C72.0983 63.6558 73.9529 62.6987 75.3833 61.1613L73.9191 59.7989ZM68.6974 63.0724V63.3565H70.6974V63.0724H68.6974ZM69.5701 64.3484C72.085 64.6711 73.8764 65.5271 75.0701 66.822L76.5406 65.4664C74.9407 63.7309 72.6601 62.7285 69.8246 62.3647L69.5701 64.3484ZM75.0756 66.8279C76.2916 68.1257 76.9111 69.753 76.9005 71.7852L78.9005 71.7957C78.9135 69.3062 78.1363 67.1693 76.535 65.4604L75.0756 66.8279ZM76.9005 71.7962C76.9111 73.6563 76.3795 75.2828 75.3072 76.7125L76.9072 77.9125C78.2496 76.1225 78.9135 74.0677 78.9005 71.7848L76.9005 71.7962ZM75.3043 76.7163C74.227 78.167 72.7234 79.3324 70.752 80.1963L71.5547 82.0281C73.7973 81.0454 75.5962 79.6777 76.91 77.9087L75.3043 76.7163ZM70.752 80.1963C68.7925 81.0549 66.5184 81.4972 63.909 81.4972V83.4972C66.7447 83.4972 69.3001 83.0161 71.5547 82.0281L70.752 80.1963Z" fill="#CB5D1F"/>
</svg>
